# xmcd CD database file
#
# Track frame offsets:
#	150
#	11892
#	26885
#	45814
#	59350
#	73185
#	90882
#	104595
#	121490
#	137462
#	152190
#	170082
#
# Disc length: 2451 seconds
#
# Revision: 0
# Processed by: cddbd v1.4PL0 Copyright (c) Steve Scherf et al.
# Submitted via: CDex 1.50
#
DISCID=a009910c
DTITLE=Harvey Thomas Young - Highways of Gold
DYEAR=1994
DGENRE=Country
TTITLE0=WISPERIN' SWEET NOTHINS
TTITLE1=CHAMPIONS OF DESIRE
TTITLE2=HIGHWAYS OF GOLD
TTITLE3=GRANDPA JOHNNIE
TTITLE4=GAMES OF THE ANCIENTS*
TTITLE5=DREAMS AND DISTANT SHORES
TTITLE6=PEOPLE KEEP FALLIN' IN LOVE
TTITLE7=THE EMERALD ISLANDS
TTITLE8=LET IT FLOW
TTITLE9=BAD FEELINGS
TTITLE10=THE TABLE IS GONE
TTITLE11=START AGAIN
EXTD=YEAR: 1994
EXTT0=
EXTT1=
EXTT2=
EXTT3=
EXTT4=
EXTT5=
EXTT6=
EXTT7=
EXTT8=
EXTT9=
EXTT10=
EXTT11=
PLAYORDER=
